<?xml version="1.0" encoding="UTF-8" standalone="no"?>
<!-- Created with Inkscape (http://www.inkscape.org/) -->

<svg
   xmlns:dc="http://purl.org/dc/elements/1.1/"
   xmlns:cc="http://creativecommons.org/ns#"
   xmlns:rdf="http://www.w3.org/1999/02/22-rdf-syntax-ns#"
   xmlns:svg="http://www.w3.org/2000/svg"
   xmlns="http://www.w3.org/2000/svg"
   xmlns:sodipodi="http://sodipodi.sourceforge.net/DTD/sodipodi-0.dtd"
   xmlns:inkscape="http://www.inkscape.org/namespaces/inkscape"
   width="44.3806mm"
   height="44.3806mm"
   viewBox="0 0 157.25409 157.25409"
   id="svg4377"
   version="1.1"
   inkscape:version="0.91 r13725"
   sodipodi:docname="small-logo.svg">
  <defs
     id="defs4379" />
  <sodipodi:namedview
     id="base"
     pagecolor="#ffffff"
     bordercolor="#666666"
     borderopacity="1.0"
     inkscape:pageopacity="0.0"
     inkscape:pageshadow="2"
     inkscape:zoom="0.35"
     inkscape:cx="116.48419"
     inkscape:cy="-227.08724"
     inkscape:document-units="px"
     inkscape:current-layer="layer1"
     showgrid="false"
     fit-margin-top="0"
     fit-margin-left="0"
     fit-margin-right="0"
     fit-margin-bottom="0"
     inkscape:window-width="1280"
     inkscape:window-height="751"
     inkscape:window-x="0"
     inkscape:window-y="0"
     inkscape:window-maximized="1" />
  <metadata
     id="metadata4382">
    <rdf:RDF>
      <cc:Work
         rdf:about="">
        <dc:format>image/svg+xml</dc:format>
        <dc:type
           rdf:resource="http://purl.org/dc/dcmitype/StillImage" />
        <dc:title></dc:title>
      </cc:Work>
    </rdf:RDF>
  </metadata>
  <g
     inkscape:label="Calque 1"
     inkscape:groupmode="layer"
     id="layer1"
     transform="translate(-298.51581,-262.30658)">
    <g
       id="g7034"
       transform="matrix(0.65492184,0,0,0.65492184,130.14379,-217.29698)">
      <circle
         style="opacity:1;fill:#daebf3;fill-opacity:1;stroke:none;stroke-width:5;stroke-miterlimit:4;stroke-dasharray:none;stroke-opacity:1"
         id="path8181-4-1-1-2-1-8-4-8-5-4"
         cx="377.14282"
         cy="852.36218"
         r="120.05562" />
      <g
         transform="matrix(0.30458216,-0.08068847,0.08068847,0.30458216,37.321877,1268.936)"
         id="g5687-7-3-0-5">
        <path
           style="fill:#2980b9;fill-opacity:1;fill-rule:evenodd;stroke:none;stroke-width:1px;stroke-linecap:butt;stroke-linejoin:miter;stroke-opacity:1"
           d="m 1129.9325,-1077.7503 c -6.2764,10.2682 11.3487,190.84736 26.5287,203.85236 12.2439,10.4895 429.2046,53.3709 448.1961,39.095 15.7848,-11.8655 2.6269,-334.30046 -19.5475,-351.85486 -19.7929,-15.6691 -446.1229,94.0944 -455.1773,108.9075 z"
           id="path4651-4-4-9-8-8-9-5-69"
           inkscape:connector-curvature="0"
           sodipodi:nodetypes="sssss" />
        <path
           style="fill:none;fill-rule:evenodd;stroke:none;stroke-width:1px;stroke-linecap:butt;stroke-linejoin:miter;stroke-opacity:1"
           d="m 1241.6324,-996.76794 -108.9074,61.435"
           id="path4657-2-4-4-9-90-9-4-9"
           inkscape:connector-curvature="0"
           sodipodi:nodetypes="cc" />
        <path
           style="fill:#ffffff;fill-rule:evenodd;stroke:none;stroke-width:1.83520842px;stroke-linecap:butt;stroke-linejoin:miter;stroke-opacity:1"
           d="m 1339.5437,-1032.4 c 0,0 -1.872,38.3726 15.6289,48.72735 0,0 172.5372,-24.45865 239.7073,-94.34645 9.9445,-10.3469 -14.0593,-113.2531 -14.0593,-113.2531 z"
           id="path5640-00-2-9-4"
           inkscape:connector-curvature="0"
           sodipodi:nodetypes="csscc" />
        <path
           style="fill:#ffffff;fill-rule:evenodd;stroke:none;stroke-width:1.83520842px;stroke-linecap:butt;stroke-linejoin:miter;stroke-opacity:1"
           d="m 1372.5835,-949.29007 c 0,0 -15.0997,-16.54124 -7.2612,-18.91602 29.1693,-8.83721 149.7641,-15.67004 229.8919,-68.34111 15.4823,-10.1771 8.8399,186.33833 8.8399,186.33833 z"
           id="path5657-7-0-3-5"
           inkscape:connector-curvature="0"
           sodipodi:nodetypes="csscc" />
        <path
           style="fill:none;fill-rule:evenodd;stroke:#2980b9;stroke-width:5.99978638;stroke-linecap:butt;stroke-linejoin:miter;stroke-miterlimit:4;stroke-dasharray:none;stroke-opacity:1"
           d="m 1408.1247,-985.42964 -19.3812,-74.52966"
           id="path5659-0-41-0-1"
           inkscape:connector-curvature="0"
           sodipodi:nodetypes="cc" />
        <path
           style="fill:none;fill-rule:evenodd;stroke:#2980b9;stroke-width:5.99978638;stroke-linecap:butt;stroke-linejoin:miter;stroke-miterlimit:4;stroke-dasharray:none;stroke-opacity:1"
           d="m 1463.0738,-1001.4312 -20.9529,-92.533"
           id="path5661-8-69-6-41"
           inkscape:connector-curvature="0"
           sodipodi:nodetypes="cc" />
        <path
           style="fill:none;fill-rule:evenodd;stroke:#2980b9;stroke-width:5.99978638;stroke-linecap:butt;stroke-linejoin:miter;stroke-miterlimit:4;stroke-dasharray:none;stroke-opacity:1"
           d="m 1521.7905,-1024.6445 -28.2899,-102.9097"
           id="path5663-9-5-2-4"
           inkscape:connector-curvature="0"
           sodipodi:nodetypes="cc" />
        <path
           style="fill:none;fill-rule:evenodd;stroke:#2980b9;stroke-width:5.99978638;stroke-linecap:butt;stroke-linejoin:miter;stroke-miterlimit:4;stroke-dasharray:none;stroke-opacity:1"
           d="m 1572.0629,-1050.9969 -28.5321,-108.6167"
           id="path5665-2-2-8-3"
           inkscape:connector-curvature="0"
           sodipodi:nodetypes="cc" />
        <path
           style="fill:none;fill-rule:evenodd;stroke:#2980b9;stroke-width:6.12159109;stroke-linecap:butt;stroke-linejoin:miter;stroke-miterlimit:4;stroke-dasharray:none;stroke-opacity:1"
           d="m 1407.8575,-985.87937 9.7356,44.94388"
           id="path5667-8-7-3-31"
           inkscape:connector-curvature="0"
           sodipodi:nodetypes="cc" />
        <path
           style="fill:none;fill-rule:evenodd;stroke:#2980b9;stroke-width:5.99978638;stroke-linecap:butt;stroke-linejoin:miter;stroke-miterlimit:4;stroke-dasharray:none;stroke-opacity:1"
           d="m 1463.6953,-991.68048 19.0476,79.34619"
           id="path5669-5-2-3-5"
           inkscape:connector-curvature="0"
           sodipodi:nodetypes="cc" />
        <path
           style="fill:none;fill-rule:evenodd;stroke:#2980b9;stroke-width:5.99978638;stroke-linecap:butt;stroke-linejoin:miter;stroke-miterlimit:4;stroke-dasharray:none;stroke-opacity:1"
           d="m 1525.0099,-1009.2546 26.614,125.55225"
           id="path5671-3-0-9-4"
           inkscape:connector-curvature="0"
           sodipodi:nodetypes="cc" />
        <path
           style="fill:none;fill-rule:evenodd;stroke:#2980b9;stroke-width:5.99978638;stroke-linecap:butt;stroke-linejoin:miter;stroke-miterlimit:4;stroke-dasharray:none;stroke-opacity:1"
           d="m 1576.7431,-1028.7808 34.5259,169.37558"
           id="path5673-2-0-3-66"
           inkscape:connector-curvature="0"
           sodipodi:nodetypes="cc" />
        <path
           style="fill:#ffffff;fill-rule:evenodd;stroke:none;stroke-width:1.83520842px;stroke-linecap:butt;stroke-linejoin:miter;stroke-opacity:1"
           d="m 1136.1768,-1071.5482 c 0,0 -4.5562,56.9164 4.6901,64.9092 9.2877,8.02861 88.3222,20.36485 100.4133,17.5517 4.1855,-0.97381 0.094,-12.8915 0.094,-12.8915 z"
           id="path5675-88-7-5-6"
           inkscape:connector-curvature="0"
           sodipodi:nodetypes="csscc" />
        <path
           style="fill:#ffffff;fill-rule:evenodd;stroke:none;stroke-width:1.83520842px;stroke-linecap:butt;stroke-linejoin:miter;stroke-opacity:1"
           d="m 1147.3219,-923.1763 c 0,0 -10.2254,-71.3542 -8.7089,-70.2099 15.3833,11.60872 105.1567,16.78656 105.1567,16.78656 z"
           id="path5677-1-72-2-70"
           inkscape:connector-curvature="0"
           sodipodi:nodetypes="cscc" />
        <path
           style="fill:none;fill-rule:evenodd;stroke:#2980b9;stroke-width:5.99978638;stroke-linecap:butt;stroke-linejoin:miter;stroke-miterlimit:4;stroke-dasharray:none;stroke-opacity:1"
           d="m 1164.1875,-1051.2101 0.1148,54.32658"
           id="path5679-2-15-7-4"
           inkscape:connector-curvature="0" />
        <path
           style="fill:none;fill-rule:evenodd;stroke:#2980b9;stroke-width:5.99978638;stroke-linecap:butt;stroke-linejoin:miter;stroke-miterlimit:4;stroke-dasharray:none;stroke-opacity:1"
           d="m 1202.6066,-1025.6967 1.9411,34.91571"
           id="path5681-3-40-2-2"
           inkscape:connector-curvature="0" />
        <path
           style="fill:none;fill-rule:evenodd;stroke:#2980b9;stroke-width:6.11209726;stroke-linecap:butt;stroke-linejoin:miter;stroke-miterlimit:4;stroke-dasharray:none;stroke-opacity:1"
           d="m 1163.7872,-996.39202 4.284,47.7523"
           id="path5683-7-1-7-6"
           inkscape:connector-curvature="0" />
        <path
           style="fill:none;fill-rule:evenodd;stroke:#2980b9;stroke-width:6.23646116;stroke-linecap:butt;stroke-linejoin:miter;stroke-miterlimit:4;stroke-dasharray:none;stroke-opacity:1"
           d="m 1203.5936,-991.6386 2.8438,21.6518"
           id="path5685-4-9-4-1"
           inkscape:connector-curvature="0" />
        <path
           style="opacity:1;fill:#9ecae0;fill-opacity:1;stroke:none;stroke-width:5.74882078;stroke-miterlimit:4;stroke-dasharray:none;stroke-opacity:1"
           d="m 1530.1639,-832.07544 c -123.513,-7.5495 -308.5424,-26.8443 -363.9535,-37.9529 -10.8443,-2.174 -13.1291,-4.2997 -16.5777,-15.4239 -3.0091,-9.7063 -9.0277,-39.6757 -9.5306,-47.4572 l -0.3714,-5.7458 49.023,-27.7652 c 26.9627,-15.2709 49.3642,-27.786 49.7812,-27.8116 0.4169,-0.025 3.5684,1.8479 7.0032,4.1633 8.2073,5.5321 41.8932,22.2133 49.2985,24.4125 13.2713,3.9412 21.9705,1.0752 46.1893,-15.2175 12.7084,-8.5493 13.3431,-8.8308 16.7365,-7.4253 88.1418,49.81442 103.7293,53.94146 257.3235,91.44131 8.3317,31.25463 -4.3797,62.83529 -7.7521,64.40189 -2.6907,1.25 -58.4466,1.5248 -77.1699,0.3804 z"
           id="path4777-5-2-8-8-98-85-3-8"
           inkscape:connector-curvature="0"
           sodipodi:nodetypes="sssccsccsscccs" />
        <path
           style="opacity:1;fill:#2980b9;fill-opacity:1;stroke:none;stroke-width:5.74882078;stroke-miterlimit:4;stroke-dasharray:none;stroke-opacity:1"
           d="m 1295.628,-953.71564 c -10.6983,-2.7206 -55.0606,-26.6078 -56.3587,-30.3467 -0.2057,-0.5924 -0.9479,-1.0636 -1.6494,-1.0471 -3.0777,0.072 -48.3695,-32.59626 -88.9181,-64.13586 -13.2167,-10.2803 -18.6633,-16.4219 -20.9418,-21.2304 -2.2461,-7.1196 0.3027,-7.712 1.0397,-9.1566 6.9572,-13.6369 245.5793,-75.5508 375.0875,-103.8135 56.4162,-11.6648 75.7565,-17.45 85.2952,-4.4567 12.8092,17.4484 -15.9421,32.0563 -80.124,82.3544 -110.653,86.7168 -182.8726,148.24686 -203.3174,152.70676 -1.9761,0.431 -6.527,0.038 -10.113,-0.8743 z"
           id="path4775-9-6-7-5-8-3-8-0"
           inkscape:connector-curvature="0"
           sodipodi:nodetypes="scsscscssss" />
      </g>
    </g>
  </g>
</svg>
