<?xml version="1.0" encoding="UTF-8" standalone="no"?>
<svg
   xmlns:dc="http://purl.org/dc/elements/1.1/"
   xmlns:cc="http://creativecommons.org/ns#"
   xmlns:rdf="http://www.w3.org/1999/02/22-rdf-syntax-ns#"
   xmlns:svg="http://www.w3.org/2000/svg"
   xmlns="http://www.w3.org/2000/svg"
   xmlns:sodipodi="http://sodipodi.sourceforge.net/DTD/sodipodi-0.dtd"
   xmlns:inkscape="http://www.inkscape.org/namespaces/inkscape"
   version="1.1"
   id="svg4421"
   viewBox="0 0 818.51556 115.54053"
   height="32.608105mm"
   width="231.00328mm"
   inkscape:version="0.91 r13725"
   sodipodi:docname="bg-with-title.svg">
  <sodipodi:namedview
     pagecolor="#ffffff"
     bordercolor="#666666"
     borderopacity="1"
     objecttolerance="10"
     gridtolerance="10"
     guidetolerance="10"
     inkscape:pageopacity="0"
     inkscape:pageshadow="2"
     inkscape:window-width="1280"
     inkscape:window-height="755"
     id="namedview4175"
     showgrid="false"
     inkscape:zoom="0.86401669"
     inkscape:cx="436.1085"
     inkscape:cy="122.19816"
     inkscape:window-x="0"
     inkscape:window-y="0"
     inkscape:window-maximized="0"
     inkscape:current-layer="g4944-4-0-8-99-3-3"
     fit-margin-top="0"
     fit-margin-left="0"
     fit-margin-right="0"
     fit-margin-bottom="0" />
  <defs
     id="defs4423" />
  <metadata
     id="metadata4426">
    <rdf:RDF>
      <cc:Work
         rdf:about="">
        <dc:format>image/svg+xml</dc:format>
        <dc:type
           rdf:resource="http://purl.org/dc/dcmitype/StillImage" />
        <dc:title></dc:title>
      </cc:Work>
    </rdf:RDF>
  </metadata>
  <g
     transform="translate(221.3574,-462.25072)"
     id="layer1">
    <g
       id="g6021-1-7-8"
       transform="matrix(0.63015508,0,0,0.63015508,-181.57587,672.46875)">
      <g
         id="g4944-4-0-8-99-3-3"
         transform="translate(788.46942,-502.24243)">
        <path
           style="opacity:1;fill:#2980b9;fill-opacity:1;stroke:none;stroke-width:5;stroke-miterlimit:4;stroke-dasharray:none;stroke-opacity:1"
           d="m -421.04883,142.52539 c -1.74553,0 -3.15039,1.40681 -3.15039,3.15234 l 0,79.51368 c 0,1.74553 1.40486,3.15039 3.15039,3.15039 l 227.42578,0 91.53321,0 227.42578,0 251.62304,0 c 0.86703,0 1.56446,-0.72054 1.56446,-1.61328 l 0,-9.59375 a 25.985895,25.985895 0 0 1 -18.13477,-24.73829 25.985895,25.985895 0 0 1 10.03516,-20.49804 26.785464,26.785464 0 0 1 -21.45117,-23.46289 26.385678,26.385678 0 0 1 -11.77149,2.7832 26.385678,26.385678 0 0 1 -19.53125,-8.69141 l -192.31445,0 c -0.007,-4e-5 -0.0128,-0.002 -0.0195,-0.002 l -227.42578,0 -91.53321,0 -227.42578,0 z"
           transform="matrix(1.586911,0,0,1.586911,-178.43276,-10.360452)"
           id="rect8179-8-6-6-6-5-5-9-7-5-9"
           inkscape:connector-curvature="0" />
        <g
           transform="translate(1217.6192,-973.12137)"
           id="g7572-5-6-7-2-8-0-1-2-1-2-0"
           style="fill:#2980b9;fill-opacity:1">
          <path
             id="path7433-45-9-9-7-5-2-2-9-4-1-4"
             d="m -822.3033,1184.0401 c 0,0 2.0549,-37.2076 16.28582,-41.866 6.33201,-2.0727 16.2371,4.1039 16.85891,10.7374 1.41457,15.0907 -33.14473,31.1286 -33.14473,31.1286 z"
             style="fill:#2980b9;fill-opacity:1;fill-rule:evenodd;stroke:none;stroke-width:1px;stroke-linecap:butt;stroke-linejoin:miter;stroke-opacity:1"
             inkscape:connector-curvature="0" />
          <path
             id="path7433-8-9-5-2-4-5-9-0-0-7-7-6"
             d="m -806.79248,1200.7901 c 0,0 17.36212,-24.2618 28.9789,-21.3004 5.16883,1.3177 9.21077,9.744 6.78317,14.4937 -5.52261,10.8052 -35.76207,6.8067 -35.76207,6.8067 z"
             style="fill:#2980b9;fill-opacity:1;fill-rule:evenodd;stroke:none;stroke-width:1px;stroke-linecap:butt;stroke-linejoin:miter;stroke-opacity:1"
             inkscape:connector-curvature="0" />
          <path
             id="path7433-6-0-2-6-4-7-4-9-0-8-5-9"
             d="m -841.52358,1173.709 c 0,0 -15.61286,-18.1615 -11.09047,-26.6566 2.01224,-3.7799 9.3534,-5.3267 12.59495,-2.5288 7.37429,6.3651 -1.50448,29.1854 -1.50448,29.1854 z"
             style="fill:#2980b9;fill-opacity:1;fill-rule:evenodd;stroke:none;stroke-width:1px;stroke-linecap:butt;stroke-linejoin:miter;stroke-opacity:1"
             inkscape:connector-curvature="0" />
        </g>
      </g>
    </g>
  </g>
</svg>
